<svg width="19" height="18" viewBox="0 0 19 18" fill="none" xmlns="http://www.w3.org/2000/svg">
<path fill-rule="evenodd" clip-rule="evenodd" d="M4.5479 0.709434C5.47874 0.721934 6.14207 1.41943 6.98124 2.30193C7.18874 2.51943 7.4129 2.75693 7.66374 3.00693C8.87957 4.2236 8.53374 5.2161 8.25457 6.01277C7.95124 6.88193 7.68874 7.63193 9.2604 9.2036C10.8321 10.7753 11.5812 10.5128 12.4496 10.2069C13.2471 9.9286 14.2371 9.58027 15.4554 10.7969C15.7029 11.0444 15.9362 11.2661 16.1529 11.4719C17.0387 12.3153 17.7387 12.9811 17.7505 13.9144C17.7596 14.7094 17.2762 15.5211 16.0829 16.7144L15.5546 16.3561L16.0021 16.7919C15.7379 17.0628 15.0354 17.7844 13.6596 17.7928H13.6346C11.5579 17.7928 8.8504 16.1394 5.58707 12.8769C2.3104 9.6011 0.654571 6.88527 0.667001 4.80443C0.674571 3.42943 1.3954 2.72527 1.66624 2.4611L1.68935 2.43585L1.7454 2.37943C2.94124 1.1836 3.7629 0.691934 4.5479 0.709434ZM4.53207 1.95943H4.5254C4.15119 1.95943 3.58288 2.33443 2.79026 3.10435L2.6311 3.26065L2.6329 3.26027C2.6329 3.26027 2.6193 3.27587 2.59612 3.29951L2.5404 3.35527C2.33874 3.5511 1.92124 3.9586 1.91703 4.8111C1.9104 6.0036 2.69457 8.21777 6.4704 11.9928C10.2279 15.7494 12.4387 16.5428 13.6346 16.5428H13.6521C14.5046 16.5378 14.9112 16.1203 15.1071 15.9194C15.1662 15.8586 15.2146 15.8128 15.2487 15.7853C16.0796 14.9494 16.5046 14.3286 16.5004 13.9294C16.4954 13.5228 15.9896 13.0428 15.2904 12.3769C15.0679 12.1661 14.8262 11.9353 14.5712 11.6803C13.9096 11.0211 13.5837 11.1336 12.8629 11.3869C11.8671 11.7361 10.5029 12.2144 8.37707 10.0869C6.2504 7.9611 6.72707 6.59693 7.07457 5.60027C7.32624 4.88027 7.44124 4.55277 6.7804 3.8911C6.52207 3.63277 6.28957 3.38777 6.0754 3.16277C5.41374 2.46777 4.93624 1.96527 4.53207 1.95943ZM11.7055 3.67402C13.4397 4.01068 14.7788 5.34902 15.1163 7.08402C15.1822 7.42402 14.9613 7.75152 14.623 7.81735C14.5822 7.82485 14.5422 7.82902 14.5022 7.82902C14.2088 7.82902 13.948 7.62235 13.8897 7.32402C13.6497 6.09068 12.6988 5.13985 11.4672 4.90068C11.128 4.83485 10.9072 4.50735 10.973 4.16818C11.0388 3.82902 11.3722 3.60735 11.7055 3.67402ZM11.6556 0.714184C15.0539 1.09168 17.6931 3.72752 18.0739 7.12502C18.1122 7.46835 17.8656 7.77752 17.5231 7.81585C17.4997 7.81835 17.4756 7.82002 17.4522 7.82002C17.1381 7.82002 16.8681 7.58418 16.8322 7.26502C16.5164 4.45168 14.3314 2.26835 11.5172 1.95585C11.1747 1.91752 10.9272 1.60918 10.9656 1.26585C11.0031 0.923351 11.3089 0.670851 11.6556 0.714184Z" fill="#B0B0B2"/>
</svg>
